<?xml version="1.0" standalone="no"?>
<!DOCTYPE svg PUBLIC "-//W3C//DTD SVG 20010904//EN"
 "http://www.w3.org/TR/2001/REC-SVG-20010904/DTD/svg10.dtd">
<svg version="1.0" xmlns="http://www.w3.org/2000/svg"
 width="1110.000000pt" height="1280.000000pt" viewBox="0 0 1110.000000 1280.000000"
 preserveAspectRatio="xMidYMid meet">
<g transform="translate(0.000000,1280.000000) scale(0.100000,-0.100000)"
fill="currentColor" stroke="none">
<path d="M7608 12793 c-40 -6 -34 -28 12 -50 22 -10 40 -21 40 -25 0 -4 -12
-16 -27 -28 -40 -32 -53 -54 -64 -117 -6 -32 -17 -68 -25 -80 -12 -20 -81 -63
-100 -63 -4 0 -3 31 0 70 6 62 5 70 -13 82 -19 12 -19 12 1 41 26 36 37 117
16 117 -16 0 -46 -49 -158 -260 -134 -254 -148 -270 -169 -209 -17 48 -14 75
14 127 14 26 25 52 25 59 0 24 50 125 92 184 41 59 42 62 23 75 -29 21 -54 17
-67 -11 -13 -30 -24 -32 -33 -6 -16 53 -72 90 -90 60 -4 -6 -13 -40 -21 -76
-7 -37 -22 -76 -33 -87 -35 -39 -43 -64 -32 -103 6 -20 9 -38 7 -40 -2 -2 -21
7 -41 22 -21 14 -41 25 -46 25 -18 0 -62 -73 -62 -102 0 -21 -8 -36 -29 -51
-33 -25 -34 -27 -8 -107 11 -34 20 -64 20 -66 0 -3 -11 -2 -25 2 -16 4 -34 -1
-56 -17 -31 -22 -31 -22 -25 -1 7 22 -21 57 -56 68 -23 7 -23 20 -1 33 26 14
10 23 -20 12 -17 -7 -25 -16 -21 -24 3 -10 -4 -16 -20 -19 -30 -6 -33 0 -9 17
15 11 13 14 -22 24 -54 15 -73 15 -57 -1 7 -7 12 -36 12 -65 0 -30 7 -70 15
-90 19 -45 19 -53 0 -53 -9 0 -20 11 -27 25 -11 24 -53 45 -93 45 -12 0 -43
-11 -70 -25 -28 -15 -55 -23 -67 -19 -30 9 -48 -14 -48 -62 0 -36 6 -51 36
-84 41 -45 39 -48 -16 -20 -52 26 -80 26 -80 0 0 -24 -23 -73 -51 -109 -24
-30 -24 -24 0 47 23 69 47 251 37 278 -7 18 -8 18 -25 -3 -10 -12 -24 -50 -31
-85 -7 -40 -33 -103 -72 -175 -33 -62 -61 -113 -63 -113 -2 0 -17 14 -33 30
-35 35 -92 41 -131 13 -24 -16 -24 -16 -18 13 6 31 -8 68 -23 59 -5 -3 -12
-27 -15 -53 -11 -84 -14 -90 -47 -101 -40 -14 -88 -59 -88 -83 0 -9 9 -22 21
-28 12 -7 18 -17 15 -27 -4 -8 3 -22 16 -32 l22 -18 -40 -7 c-94 -18 -264
-108 -264 -140 0 -15 21 -26 51 -26 30 0 23 -13 -21 -38 -42 -24 -51 -50 -25
-72 20 -17 19 -30 -7 -57 -20 -21 -20 -24 -5 -41 46 -51 3 -80 -135 -93 -111
-11 -163 -31 -163 -65 0 -27 42 -30 76 -5 33 24 71 27 88 7 15 -18 2 -27 -49
-36 -31 -5 -35 -9 -35 -35 l0 -30 58 3 c65 4 68 -1 35 -59 -24 -43 -30 -46
-48 -24 -7 8 -22 15 -33 15 -11 0 -31 9 -43 21 -30 28 -52 20 -105 -39 l-43
-46 29 -8 c17 -3 62 -14 100 -22 45 -10 76 -24 87 -37 25 -30 12 -43 -19 -19
-62 49 -164 48 -213 -1 -16 -16 -34 -29 -41 -29 -18 0 -69 -51 -69 -68 0 -7
10 -22 23 -33 l22 -18 -37 -1 c-48 0 -49 -15 -3 -31 45 -17 45 -29 0 -29 -41
0 -43 -5 -13 -30 l23 -18 -33 -19 c-73 -40 -122 -73 -122 -83 0 -17 44 -22
151 -18 l101 3 -53 -48 c-30 -27 -67 -55 -82 -64 -26 -13 -31 -13 -46 1 -24
22 -44 20 -69 -7 -29 -31 -28 -45 9 -90 32 -39 30 -45 -11 -22 -45 26 -66 19
-89 -28 -33 -69 -36 -101 -12 -140 26 -43 26 -50 1 -43 -11 3 -29 8 -39 11
-24 7 -52 -20 -44 -43 10 -30 46 -62 67 -62 12 0 38 14 59 31 20 17 37 27 37
22 0 -17 -93 -114 -166 -174 -41 -33 -74 -66 -74 -72 0 -7 -23 -33 -52 -59
l-53 -47 58 -1 c65 0 73 -10 21 -29 -23 -8 -34 -18 -30 -26 5 -15 -29 -65 -45
-65 -6 0 -22 14 -36 30 -30 36 -64 41 -60 8 1 -16 -5 -23 -30 -30 -42 -11 -79
-58 -99 -124 -9 -31 -29 -71 -46 -90 l-30 -34 29 0 c42 0 46 -8 22 -47 l-21
-33 25 0 c53 0 167 56 167 82 0 6 -15 8 -35 6 -19 -2 -35 -1 -35 3 0 12 83 77
112 88 38 14 58 -8 58 -62 0 -50 -5 -58 -47 -82 -33 -19 -47 -41 -57 -86 -7
-30 -28 -39 -97 -39 -56 0 -64 -7 -36 -31 l22 -19 -50 2 -50 3 3 41 c4 48 -14
68 -51 59 -32 -8 -68 -46 -49 -52 39 -14 -24 -72 -135 -125 -35 -17 -63 -32
-63 -35 0 -3 11 -14 25 -25 16 -13 25 -29 25 -49 0 -33 -10 -36 -44 -13 -33
21 -43 1 -17 -35 12 -16 21 -32 21 -35 0 -3 -37 -6 -82 -6 -96 0 -124 -11 -93
-36 18 -14 12 -15 -85 -14 -165 3 -170 3 -170 -20 0 -17 7 -20 43 -20 46 0
108 -34 128 -71 9 -17 6 -28 -17 -60 -15 -21 -31 -39 -35 -39 -5 0 -9 21 -9
46 0 85 -35 106 -100 62 -48 -33 -58 -53 -37 -76 9 -10 17 -21 17 -24 0 -3
-28 -3 -63 -1 -53 4 -66 2 -90 -17 -57 -45 -40 -53 146 -65 91 -6 117 -12 117
-24 0 -15 -52 -31 -100 -31 -36 0 -52 -5 -58 -17 -9 -15 -14 -12 -45 20 -45
49 -86 47 -129 -7 -24 -29 -22 -34 9 -38 19 -2 29 -10 31 -23 2 -11 10 -25 19
-32 13 -10 10 -14 -19 -29 l-33 -18 49 -9 48 -10 -76 -29 c-115 -44 -105 -53
74 -63 57 -3 108 -9 113 -14 12 -12 -39 -27 -133 -41 -41 -6 -79 -15 -84 -20
-21 -21 68 -101 95 -85 15 10 39 -14 39 -39 0 -11 -7 -41 -16 -66 -16 -45 -12
-104 7 -116 6 -3 28 8 49 25 21 17 41 31 44 31 25 0 -30 -118 -69 -148 -23
-18 -23 -21 -8 -33 9 -8 36 -13 64 -12 44 1 48 -1 39 -17 -14 -26 -50 -50 -75
-50 -20 0 -128 -86 -153 -121 -7 -11 -10 -24 -7 -29 15 -25 95 1 95 31 0 32
106 89 166 89 33 0 30 -18 -8 -57 -30 -31 -31 -33 -10 -33 31 0 27 -15 -9 -41
-21 -15 -29 -27 -26 -41 3 -12 -2 -23 -14 -31 -24 -15 -25 -30 -1 -23 9 2 37
8 62 11 l45 7 -42 -31 c-24 -17 -43 -38 -43 -46 0 -19 -9 -19 -34 0 -28 21
-46 18 -46 -7 l0 -21 -24 22 c-23 22 -23 22 -29 2 -9 -36 32 -97 118 -175 48
-44 85 -86 87 -99 3 -21 7 -22 93 -22 79 0 97 4 150 30 33 16 66 28 73 27 7
-2 46 30 87 70 53 52 77 83 81 106 5 23 15 37 32 43 13 5 47 30 75 55 40 36
55 44 76 39 56 -11 74 29 81 181 4 101 8 126 24 143 45 50 66 11 66 -120 0
-50 5 -99 11 -110 5 -11 34 -30 64 -43 34 -16 59 -34 68 -53 l15 -28 13 30 c8
17 14 72 14 125 1 66 7 104 18 126 9 17 13 34 10 38 -4 4 12 25 35 49 73 74
95 183 67 335 -19 102 -17 119 16 124 27 4 55 42 64 84 5 28 0 39 -49 95 -39
44 -58 76 -65 108 -18 76 -31 424 -22 596 10 189 27 246 98 325 66 74 92 85
197 85 84 0 90 1 109 27 28 37 17 84 -34 142 -47 53 -49 38 28 218 63 149 79
221 92 421 5 87 14 154 21 162 7 8 26 15 42 15 41 0 94 25 108 50 7 13 8 38 4
66 -5 38 -3 49 14 67 37 40 182 279 182 301 0 11 -14 41 -30 66 -16 25 -30 52
-30 60 0 9 18 34 41 55 24 24 57 74 81 123 44 92 103 162 137 162 12 0 35 -7
52 -16 64 -32 92 7 103 144 4 45 12 94 18 108 10 22 17 25 47 21 20 -2 93 -30
163 -61 159 -70 168 -71 168 -11 0 26 11 73 27 110 29 71 28 89 -11 178 -13
29 -14 38 -4 41 7 2 34 8 59 14 25 6 69 27 98 46 66 45 122 61 153 45 26 -14
37 -27 96 -124 72 -117 139 -175 200 -175 15 0 54 16 86 35 32 19 69 35 81 35
13 0 54 -18 91 -40 92 -53 107 -52 139 9 25 49 47 72 104 103 l31 17 -2 93
c-1 82 3 104 31 183 18 50 38 110 45 135 l12 45 105 38 c57 20 137 57 178 82
40 25 76 45 80 45 18 0 219 -182 249 -225 31 -45 34 -55 30 -105 -3 -42 -13
-70 -42 -117 -41 -66 -45 -108 -12 -108 13 0 23 12 33 40 16 46 60 95 119 132
23 15 47 35 53 46 15 23 7 64 -19 97 l-19 25 -40 -22 c-22 -13 -42 -23 -45
-23 -14 0 -4 31 19 58 36 43 33 62 -11 62 -20 0 -33 4 -29 10 11 18 -15 49
-74 89 -57 39 -77 64 -65 82 10 16 52 9 130 -21 92 -37 91 -37 232 54 l103 67
-32 41 c-40 50 -85 71 -128 58 -34 -10 -38 -3 -16 26 21 28 18 51 -7 58 -34 9
-36 8 -43 -14 -6 -20 -6 -20 -33 0 -15 12 -43 31 -62 43 -21 13 -39 36 -46 55
-5 18 -15 37 -22 44 -18 18 -75 -48 -100 -115 -28 -75 -48 -105 -83 -122 -40
-21 -46 -3 -19 56 13 27 20 52 16 56 -3 4 -27 -3 -51 -15 -25 -12 -45 -20 -45
-17 0 2 9 20 21 39 12 21 18 43 14 55 -7 23 19 41 58 41 27 0 57 28 57 54 0
36 -105 55 -212 39z m-4183 -4385 c8 -21 11 -38 6 -38 -15 0 -31 25 -37 61 -8
43 8 30 31 -23z"/>
<path d="M6870 12610 c0 -28 21 -70 35 -70 15 0 45 32 45 48 0 12 -50 42 -70
42 -5 0 -10 -9 -10 -20z"/>
<path d="M5957 12222 c-2 -11 -17 -22 -36 -25 -17 -4 -31 -12 -31 -18 0 -12
58 -69 70 -69 19 0 40 33 40 61 0 53 -32 91 -43 51z"/>
<path d="M7620 12184 c-52 -30 -113 -59 -135 -65 -53 -15 -97 -65 -130 -147
-39 -96 -53 -177 -47 -260 l5 -71 -34 -18 c-63 -33 -106 -87 -119 -148 -6 -30
-14 -55 -17 -55 -4 0 -51 25 -105 55 -54 30 -111 55 -126 55 -15 0 -47 -14
-72 -30 -119 -79 -199 -35 -331 183 -52 86 -58 92 -85 89 -49 -6 -74 -28 -74
-67 0 -39 -1 -39 -50 -25 -101 29 -17 -68 185 -213 174 -126 271 -220 315
-310 29 -60 34 -80 41 -189 5 -93 11 -125 23 -134 11 -8 16 -28 16 -68 0 -39
8 -76 26 -119 28 -66 28 -55 8 -287 -8 -90 6 -164 45 -246 34 -70 78 -114 151
-152 32 -15 60 -38 67 -53 15 -32 42 -185 46 -259 l2 -55 -52 0 c-46 0 -56 -4
-88 -35 -20 -19 -77 -95 -127 -169 -111 -164 -150 -209 -205 -233 -67 -30
-142 -142 -143 -214 0 -39 -11 -49 -79 -66 -53 -13 -54 -14 -71 -65 -9 -29
-30 -68 -46 -88 -58 -73 -59 -78 -35 -181 11 -51 21 -126 21 -166 0 -57 6 -85
25 -126 29 -62 32 -128 11 -205 -19 -68 -39 -261 -31 -299 8 -34 52 -58 107
-58 42 0 60 -12 58 -36 -6 -54 17 -62 96 -34 32 11 61 20 65 20 4 0 5 -28 2
-62 -3 -46 -1 -68 10 -83 15 -19 17 -19 158 14 93 22 173 48 225 73 44 21 105
43 135 47 31 5 96 25 147 45 57 23 121 39 172 45 61 7 90 15 119 35 46 32 395
409 486 526 97 123 167 225 210 304 31 56 38 79 39 126 1 77 -29 121 -133 194
-53 37 -97 79 -131 122 -27 37 -50 70 -50 73 1 3 24 22 52 41 94 63 99 104 23
190 -43 49 -45 53 -45 115 0 52 -4 68 -24 92 -34 41 -46 94 -46 210 0 127 15
199 46 228 15 14 24 34 24 53 0 42 -46 178 -125 367 -37 88 -69 168 -72 178
-3 10 10 43 33 80 22 34 64 111 95 171 l57 110 -40 65 c-51 84 -99 134 -164
171 -61 34 -81 75 -91 184 -4 56 -1 87 12 131 15 45 16 61 7 76 -17 27 -15 38
15 81 18 26 26 50 25 75 -1 26 11 59 40 111 74 134 53 198 -109 332 -53 44
-101 79 -107 79 -6 -1 -54 -26 -106 -55z"/>
<path d="M5800 12060 c-6 -10 -13 -40 -16 -65 -6 -38 -4 -45 10 -45 24 0 66
45 66 70 0 52 -39 79 -60 40z"/>
<path d="M5965 12060 c-38 -42 -14 -201 28 -188 27 9 47 72 45 138 -3 61 -4
65 -29 68 -16 2 -32 -5 -44 -18z"/>
<path d="M5647 11910 c-29 -23 -64 -117 -54 -144 14 -37 97 4 97 49 0 12 7 28
15 35 27 23 13 80 -21 80 -6 0 -23 -9 -37 -20z"/>
<path d="M6183 11655 c-3 -9 2 -35 11 -58 22 -58 21 -69 -15 -137 -26 -51 -28
-61 -17 -79 11 -18 10 -25 -4 -48 -32 -53 -46 -55 -123 -22 -38 17 -99 37
-135 44 -44 10 -70 21 -79 35 -16 24 -37 26 -45 4 -3 -8 -11 -57 -16 -107 -11
-96 -38 -173 -65 -183 -9 -4 -38 5 -65 20 -39 21 -54 25 -69 17 -30 -16 -60
-64 -98 -154 -37 -88 -66 -127 -94 -127 -38 0 -31 -30 31 -126 19 -30 8 -59
-61 -165 -77 -117 -120 -207 -127 -265 -5 -51 -31 -77 -93 -96 -66 -19 -71
-31 -85 -206 -15 -184 -28 -238 -93 -392 -63 -149 -66 -163 -38 -175 50 -23
68 -133 31 -196 l-20 -34 -95 3 c-85 3 -97 1 -129 -20 -52 -36 -94 -97 -120
-179 -23 -71 -24 -85 -24 -349 1 -279 12 -404 39 -463 8 -17 35 -56 60 -85 38
-45 44 -57 39 -85 -10 -51 -38 -101 -67 -115 -32 -15 -31 -12 -11 -99 18 -74
14 -179 -8 -247 -7 -21 -29 -56 -50 -78 -27 -28 -38 -48 -38 -70 0 -17 -7 -36
-16 -42 -12 -9 -17 -39 -23 -121 -11 -160 -41 -206 -99 -152 l-25 22 6 -75 c7
-88 35 -201 73 -297 40 -103 179 -387 213 -439 52 -77 65 -199 25 -239 -14
-14 -12 -24 25 -97 32 -63 40 -89 35 -113 -4 -23 0 -35 14 -48 19 -17 23 -17
103 4 46 12 90 26 97 31 6 6 12 30 12 54 0 73 30 124 74 124 15 0 25 9 33 31
l12 31 106 -7 c125 -8 124 -9 171 88 45 94 87 305 114 567 19 184 23 194 112
287 46 48 78 90 78 102 0 24 15 28 24 6 5 -14 9 -14 35 0 37 18 61 52 61 83 0
19 3 21 19 12 11 -5 29 -10 40 -10 31 0 28 45 -4 66 -34 22 -31 37 8 56 51 24
97 68 97 91 0 70 -203 298 -290 327 -72 24 -85 60 -85 240 0 138 2 150 33 245
37 111 51 198 33 209 -24 15 -9 45 44 85 38 29 62 57 80 94 28 60 146 198 235
276 34 29 98 78 143 108 114 77 123 87 173 186 25 48 59 104 77 125 72 80 72
80 25 130 -37 41 -40 47 -36 91 3 28 17 66 36 97 18 28 32 65 32 82 0 29 15
51 110 163 23 26 34 54 43 105 11 57 17 69 32 69 11 0 21 8 23 18 4 22 8 22
66 -8 40 -20 64 -25 128 -25 63 0 80 3 85 16 3 9 -4 58 -16 109 -25 110 -26
150 -7 277 16 102 12 131 -23 211 -11 27 -21 69 -21 93 0 24 -4 44 -9 44 -16
0 -23 34 -30 160 -6 110 -10 133 -38 191 -37 81 -116 160 -263 267 -145 105
-198 148 -251 204 -48 50 -66 58 -76 33z"/>
<path d="M5133 11580 c-7 -10 -33 -28 -58 -39 -41 -18 -57 -42 -36 -55 4 -3
25 3 46 14 21 11 41 18 43 16 2 -3 -10 -25 -27 -50 -41 -60 -41 -81 0 -72 17
3 34 6 38 6 14 0 33 93 28 136 -6 55 -18 71 -34 44z"/>
<path d="M5263 11565 c-11 -8 -25 -34 -31 -58 -6 -24 -21 -52 -32 -62 -11 -10
-20 -30 -20 -45 0 -35 -17 -50 -59 -50 -68 -1 -161 -60 -148 -95 13 -31 69
-15 124 37 17 17 36 27 41 24 6 -3 31 10 56 29 26 19 48 35 51 35 2 0 -1 -14
-7 -31 -6 -16 -8 -33 -5 -36 8 -7 91 62 146 122 36 39 42 51 39 83 -4 50 -35
55 -71 13 -32 -38 -37 -39 -37 -2 0 39 -20 55 -47 36z"/>
<path d="M6092 7621 c-19 -12 -11 -65 10 -69 18 -4 48 44 41 66 -5 14 -32 16
-51 3z"/>
<path d="M6632 7567 c-26 -27 -27 -33 -8 -40 18 -7 66 29 66 49 0 22 -34 17
-58 -9z"/>
<path d="M7226 7326 c-16 -9 -53 -16 -87 -16 -69 0 -164 -33 -180 -61 -6 -11
-30 -29 -55 -39 -55 -24 -70 -52 -55 -107 6 -22 18 -46 26 -53 19 -16 19 -30
1 -30 -25 0 -26 -15 -5 -56 41 -78 100 -118 115 -79 9 22 42 18 55 -6 6 -13 8
-39 5 -64 -9 -56 11 -75 57 -56 61 25 83 24 139 -5 29 -16 85 -59 124 -96 39
-38 77 -68 83 -68 6 0 23 7 36 16 16 10 34 14 54 9 37 -8 82 14 110 54 25 35
26 66 4 117 -23 56 -21 181 6 264 11 36 41 99 66 140 l45 75 -123 6 c-89 4
-147 13 -215 33 -125 36 -170 41 -206 22z"/>
<path d="M6621 7116 c-16 -20 3 -56 29 -56 18 0 50 24 50 39 0 29 -59 41 -79
17z"/>
<path d="M6624 6949 c-17 -5 -38 -17 -48 -28 -22 -25 -18 -75 7 -79 24 -5 125
47 143 73 13 18 12 21 -3 32 -19 15 -54 15 -99 2z"/>
<path d="M1072 6898 c-11 -29 -26 -80 -33 -112 -12 -50 -19 -62 -51 -82 -50
-32 -68 -61 -68 -110 0 -43 17 -66 57 -78 l23 -7 -24 -32 c-38 -51 -86 -154
-86 -185 0 -15 5 -33 12 -40 9 -9 7 -12 -9 -12 -56 0 -72 -37 -29 -65 37 -24
69 -10 135 60 l59 64 -33 -72 c-48 -105 -59 -151 -44 -194 11 -35 12 -35 23
-14 11 19 14 20 31 6 11 -8 39 -15 62 -15 l41 0 0 -52 c0 -29 3 -69 7 -88 5
-28 0 -49 -29 -110 -20 -41 -36 -84 -36 -95 0 -23 75 -102 82 -88 3 4 8 21 12
36 5 22 11 27 24 22 57 -24 71 -27 95 -22 24 7 33 14 65 52 13 15 112 23 112
9 0 -4 -15 -24 -34 -45 -43 -47 -62 -106 -50 -151 7 -25 20 -38 53 -54 26 -12
48 -32 53 -45 14 -38 11 -112 -6 -153 -9 -21 -16 -40 -16 -41 0 -1 13 -19 30
-40 32 -40 29 -64 -11 -85 -15 -9 -25 -7 -45 9 -54 42 -147 35 -198 -15 -35
-36 -34 -61 5 -69 22 -5 29 -11 24 -22 -3 -9 2 -24 11 -34 15 -17 15 -22 -2
-70 -27 -75 -83 -133 -152 -159 -31 -12 -62 -26 -69 -32 -14 -11 -17 -67 -7
-105 l6 -23 45 27 c40 23 48 25 82 14 21 -6 60 -13 85 -15 36 -4 56 -13 86
-40 34 -31 43 -34 65 -26 49 19 87 42 128 78 l41 37 -24 -40 c-68 -116 -93
-134 -197 -146 -60 -7 -87 -15 -118 -37 -65 -46 -247 -273 -232 -289 4 -3 40
8 80 25 98 42 115 45 166 27 66 -23 76 -20 110 35 50 81 116 109 180 75 16 -8
47 -17 70 -21 37 -6 41 -4 41 14 0 28 18 31 262 42 225 10 268 17 335 56 39
23 83 67 83 85 0 4 -26 10 -57 14 -111 12 -144 43 -84 77 16 9 31 26 33 39 2
15 24 38 62 64 132 93 155 245 44 295 -61 28 -154 27 -184 -1 -17 -16 -29 -19
-54 -14 -42 9 -47 28 -16 68 66 86 31 164 -95 213 -63 24 -66 30 -37 61 36 39
68 94 68 119 0 35 -35 69 -109 108 -39 20 -77 47 -86 59 -15 21 -43 104 -81
241 -19 70 -81 142 -159 187 -42 24 -61 29 -123 29 -74 0 -149 21 -138 39 4 5
23 15 44 21 103 34 180 101 96 86 -19 -4 -42 -10 -50 -13 -32 -12 -11 14 37
47 73 49 112 99 169 214 59 119 82 203 59 216 -51 32 -272 17 -373 -26 -110
-46 -115 -44 -70 34 14 24 28 61 30 81 2 31 16 48 96 123 89 84 92 88 75 105
-15 16 -41 18 -186 21 l-169 3 -20 -53z"/>
<path d="M7116 6730 c-27 -11 -60 -29 -73 -42 -23 -21 -25 -28 -19 -86 4 -35
2 -80 -4 -103 -15 -53 -72 -116 -120 -130 -33 -10 -44 -9 -82 10 -36 17 -50
32 -69 72 -13 29 -45 74 -71 102 -46 49 -48 50 -92 44 -25 -4 -68 -18 -94 -31
-53 -27 -66 -48 -77 -126 -4 -25 -23 -85 -42 -135 -25 -63 -37 -112 -41 -164
l-5 -75 44 26 c146 86 179 90 460 63 179 -17 179 -17 219 4 23 12 42 21 45 21
2 0 25 -18 50 -40 25 -22 53 -40 61 -40 30 0 79 -34 155 -106 43 -41 81 -74
86 -74 4 0 26 12 48 25 26 17 55 25 84 25 58 0 100 27 146 95 35 50 37 58 32
104 -7 59 -39 126 -67 141 -18 10 -19 18 -13 99 l6 89 -43 31 c-59 43 -109 57
-151 42 -17 -6 -39 -11 -47 -11 -8 0 -51 36 -96 80 -74 72 -134 111 -168 110
-7 -1 -35 -10 -62 -20z"/>
<path d="M5895 6722 c-70 -43 -129 -142 -128 -215 1 -56 17 -81 43 -67 36 19
62 70 70 138 6 46 14 70 27 79 42 31 54 45 51 61 -5 24 -28 25 -63 4z"/>
<path d="M4135 6574 c-16 -8 -48 -32 -70 -53 -67 -63 -94 -79 -150 -91 -29 -6
-72 -24 -94 -40 -65 -48 -74 -74 -79 -246 -7 -214 0 -255 48 -303 30 -30 40
-48 45 -87 4 -27 9 -57 12 -67 7 -27 45 -47 99 -53 39 -4 56 -1 83 16 24 15
31 24 22 29 -45 28 -38 242 8 254 11 2 21 15 23 28 2 15 12 25 28 29 21 5 26
13 31 50 7 49 40 84 70 75 18 -6 69 33 69 53 0 5 -17 12 -38 16 -57 9 -76 35
-80 114 -3 47 3 90 17 142 24 85 26 121 9 138 -15 15 -17 15 -53 -4z"/>
<path d="M7059 6128 c-26 -19 -32 -20 -141 -9 -145 14 -408 14 -445 0 -15 -5
-45 -27 -65 -47 -35 -33 -38 -40 -38 -92 0 -64 22 -149 51 -197 24 -39 92 -73
145 -73 53 -1 121 -33 136 -65 9 -19 9 -37 0 -75 -14 -62 -11 -70 39 -100 23
-14 54 -44 69 -66 38 -55 82 -74 165 -74 62 0 69 2 95 30 16 17 48 37 72 46
78 27 138 104 153 196 5 30 13 40 43 55 23 11 39 27 42 43 4 16 16 28 35 35
39 12 42 15 26 24 -7 5 -14 31 -15 59 -2 37 -11 64 -35 101 -52 81 -140 151
-191 151 -11 0 -40 18 -64 40 -24 22 -45 40 -47 39 -2 0 -16 -9 -30 -21z"/>
<path d="M7731 6006 c-65 -60 -93 -72 -145 -62 -44 8 -79 -19 -99 -77 -13 -39
-13 -46 1 -70 22 -35 7 -81 -27 -85 -37 -6 -129 -105 -137 -148 -3 -19 -18
-49 -31 -65 -19 -22 -23 -35 -18 -59 6 -27 4 -30 -19 -30 -48 0 -135 -39 -148
-68 -16 -32 -64 -46 -137 -39 -30 3 -63 1 -73 -4 -23 -12 -24 -70 -2 -171 8
-40 16 -108 16 -150 1 -90 -15 -123 -62 -133 -29 -6 -50 -30 -50 -55 0 -7 21
-32 46 -57 42 -42 45 -48 42 -90 -5 -70 15 -76 99 -33 l68 35 171 3 c190 4
318 -13 366 -48 40 -30 93 -38 323 -55 258 -18 267 -19 298 -51 28 -28 29 -28
42 51 14 80 68 142 150 172 48 18 50 20 53 62 2 25 -8 81 -23 137 -30 104 -28
135 10 152 21 10 32 9 55 -3 37 -19 73 -19 113 1 70 35 81 60 46 93 -12 11
-22 33 -23 48 -1 26 -5 28 -55 36 -62 8 -76 17 -86 54 -3 14 -23 46 -45 70
-51 58 -131 218 -132 263 0 19 3 55 7 80 13 86 -59 187 -163 227 -43 16 -46
16 -86 -5 -56 -30 -66 -28 -66 13 0 46 -34 70 -85 61 -27 -5 -35 -4 -35 7 0
19 -22 27 -51 20 -14 -4 -26 0 -35 11 -11 16 -18 13 -73 -38z"/>
<path d="M4520 6016 c-59 -22 -155 -73 -170 -91 -12 -14 -12 -22 0 -48 7 -18
14 -44 15 -59 1 -16 10 -37 21 -49 28 -32 127 -97 159 -105 l29 -7 -22 31
c-29 40 -28 49 8 67 l30 16 -22 29 c-29 40 -17 82 27 90 28 5 30 9 29 47 -1
47 -26 93 -52 92 -9 0 -33 -6 -52 -13z"/>
<path d="M510 5739 c-90 -49 -93 -51 -124 -112 -28 -57 -22 -63 51 -52 56 8
90 24 120 57 23 25 73 118 73 137 0 22 -46 10 -120 -30z"/>
<path d="M6298 5708 c-41 -41 -45 -48 -28 -53 27 -9 69 5 80 25 12 22 13 67 3
72 -5 2 -29 -18 -55 -44z"/>
<path d="M5060 5735 c0 -19 36 -55 55 -55 20 0 19 12 -6 44 -22 29 -49 35 -49
11z"/>
<path d="M724 5710 c-54 -27 -188 -143 -215 -187 l-21 -34 26 -37 c47 -65 67
-86 74 -76 25 37 86 104 96 104 6 0 20 -16 30 -35 54 -100 164 -97 216 6 27
52 26 77 -5 89 -15 6 -27 20 -30 37 -16 76 -28 104 -56 127 -37 31 -61 32
-115 6z"/>
<path d="M3863 5578 c50 -79 51 -85 17 -110 -35 -26 -37 -34 -10 -41 11 -3 20
-13 20 -22 0 -34 125 -177 200 -229 l25 -18 -35 7 c-38 8 -86 32 -139 70 -39
29 -110 50 -122 38 -4 -4 -4 -28 2 -52 7 -31 6 -47 -2 -57 -21 -25 -94 -14
-102 15 -8 30 -136 44 -170 18 -16 -11 -17 -19 -5 -85 19 -114 -14 -231 -68
-240 -39 -8 -39 -22 0 -58 32 -29 37 -39 31 -62 -12 -47 -55 -93 -111 -118
-30 -13 -54 -29 -55 -36 0 -7 0 -33 1 -57 1 -24 -6 -74 -16 -112 -19 -74 -22
-58 41 -228 15 -41 15 -46 -3 -80 l-19 -37 24 -48 c13 -26 27 -70 30 -97 4
-33 14 -57 30 -74 14 -14 88 -49 171 -81 81 -32 148 -58 149 -58 1 -1 -16 -37
-38 -81 -39 -79 -83 -204 -92 -258 -6 -39 10 -43 102 -23 100 21 197 22 205 1
4 -11 13 -14 31 -9 19 5 49 -5 112 -36 l85 -43 97 17 c53 10 144 28 202 42
128 29 168 30 219 4 48 -24 49 -19 20 66 -12 32 -18 69 -15 81 3 12 48 59 100
104 l95 82 -123 127 c-118 123 -179 205 -193 263 -5 24 -1 33 33 65 46 43 250
151 343 181 82 27 135 62 156 103 21 40 15 110 -21 258 -32 132 -68 219 -106
256 -34 33 -35 44 -8 104 28 62 28 157 -1 234 -31 81 -61 110 -105 103 -26 -4
-43 0 -70 19 -127 87 -112 86 -240 20 -44 -22 -97 -56 -118 -75 -34 -31 -41
-33 -83 -27 -91 12 -111 48 -48 85 53 32 33 47 -68 53 -60 4 -84 9 -93 21 -7
10 -26 17 -42 17 -42 0 -48 11 -18 34 31 25 26 49 -13 65 -24 10 -195 50 -215
51 -4 0 7 -24 26 -52z"/>
<path d="M5615 5566 c-101 -29 -166 -57 -230 -102 -30 -20 -115 -57 -204 -89
-84 -29 -162 -62 -173 -72 -16 -15 -19 -26 -14 -60 3 -24 9 -62 12 -86 5 -33
0 -58 -20 -108 -31 -79 -32 -91 -5 -115 59 -53 121 -248 139 -432 9 -103 11
-108 42 -135 74 -63 96 -76 150 -92 31 -9 69 -26 84 -37 26 -21 26 -22 5 -29
-11 -5 -21 -13 -21 -18 0 -18 70 -81 90 -81 21 0 24 8 20 49 -2 21 1 23 27 17
90 -21 329 -159 379 -219 37 -45 50 -50 78 -32 31 20 46 13 104 -49 24 -25 49
-46 56 -46 7 0 41 14 75 32 109 56 229 42 393 -46 42 -22 80 -38 84 -33 4 4 0
23 -9 42 -37 77 -26 96 155 282 l119 121 -21 51 c-11 28 -29 74 -40 102 -12
29 -25 98 -31 158 -15 147 -15 147 -59 195 -22 24 -40 47 -40 52 0 6 23 32 51
59 74 73 89 107 78 177 -12 77 -62 270 -89 340 -16 44 -26 57 -48 63 -51 13
-437 21 -572 12 -229 -16 -259 -15 -307 16 -30 19 -45 37 -52 63 -22 80 -63
90 -206 50z"/>
<path d="M4750 5515 c0 -53 49 -85 70 -46 8 16 5 23 -16 40 -31 24 -54 27 -54
6z"/>
<path d="M374 5454 l6 -47 -66 7 c-61 6 -66 5 -71 -14 -5 -20 -6 -20 -29 5
-38 41 -96 28 -135 -31 -26 -41 -24 -54 10 -54 78 0 82 -39 11 -110 -27 -28
-50 -55 -50 -60 0 -22 52 -41 135 -51 48 -5 92 -12 97 -15 17 -11 3 -31 -42
-66 -34 -26 -46 -41 -48 -66 -3 -27 1 -34 23 -42 14 -6 40 -10 56 -10 44 0 26
-16 -38 -35 -79 -23 -113 -49 -113 -86 0 -42 -23 -81 -72 -124 -24 -20 -35
-34 -26 -31 10 3 40 8 68 12 47 6 50 5 50 -16 0 -13 8 -24 20 -27 14 -4 20
-14 20 -34 0 -22 5 -29 20 -29 31 0 144 54 168 80 14 15 34 24 61 25 31 2 50
11 80 38 47 42 65 52 111 62 19 4 45 17 58 28 22 21 23 21 53 3 40 -23 50 -14
80 74 57 169 24 415 -71 525 -21 25 -42 55 -46 67 -6 21 -10 19 -60 -37 l-53
-59 -62 67 c-61 67 -103 97 -135 97 -14 0 -16 -7 -10 -46z"/>
<path d="M3260 5110 c-55 -13 -78 -53 -72 -123 1 -10 15 -29 31 -43 33 -28 64
-97 56 -125 -11 -35 -64 -69 -106 -69 -55 0 -79 39 -79 132 0 98 -24 102 -54
9 -10 -30 -42 -103 -71 -162 l-55 -108 58 -11 c113 -22 114 -23 48 -53 -32
-15 -62 -27 -67 -27 -4 0 -10 -4 -13 -8 -2 -4 27 -6 65 -4 66 4 72 3 137 -37
37 -22 82 -46 101 -52 31 -11 36 -10 54 12 16 20 18 33 13 79 -13 108 -16 100
37 120 64 25 111 62 127 100 12 29 11 33 -19 64 -38 39 -38 46 -5 77 39 35 84
109 84 137 0 32 -48 78 -96 91 -45 12 -123 13 -174 1z"/>
<path d="M8782 4760 c-22 -13 -48 -20 -77 -18 -29 1 -51 -4 -63 -15 -21 -19
-92 -36 -153 -37 -69 0 -144 -26 -172 -59 -18 -22 -26 -47 -32 -98 -12 -110
-36 -132 -74 -67 -21 36 -23 36 -69 30 -36 -5 -62 -1 -110 16 -62 22 -64 22
-97 4 -27 -15 -39 -16 -67 -8 -18 6 -82 16 -142 21 -91 9 -117 16 -161 41 -89
51 -297 73 -458 49 -54 -8 -85 -19 -123 -45 -28 -19 -56 -34 -62 -34 -16 0
-32 -34 -32 -67 0 -16 17 -63 37 -104 31 -61 37 -83 35 -127 -2 -58 -15 -92
-37 -92 -21 0 -118 -93 -181 -176 l-58 -75 17 -64 c25 -94 24 -102 -18 -97
-30 4 -37 0 -54 -29 -46 -75 -31 -163 35 -201 53 -31 181 -58 270 -58 85 0
125 -9 150 -35 9 -8 27 -15 41 -15 77 0 255 73 302 124 35 37 84 51 181 49
136 -1 297 -54 369 -122 28 -27 31 -34 31 -93 0 -63 0 -64 33 -73 29 -9 33
-15 43 -65 12 -61 25 -90 48 -110 10 -7 16 -28 16 -52 0 -32 4 -41 20 -45 32
-9 18 -27 -31 -39 -54 -13 -76 -8 -82 18 -5 16 -9 18 -25 9 -39 -21 -182 -261
-182 -305 0 -16 5 -18 33 -12 57 10 210 93 278 150 75 62 103 97 121 152 12
35 19 41 68 58 34 12 83 20 130 20 63 1 80 -3 108 -22 38 -28 40 -44 7 -62
-14 -7 -25 -17 -25 -21 0 -13 61 -27 165 -39 208 -24 220 -69 42 -157 l-78
-39 75 -48 c42 -26 81 -56 86 -66 6 -10 10 -47 10 -82 0 -65 10 -88 40 -88 9
0 58 20 109 45 51 25 102 45 113 45 12 0 39 18 60 41 l39 41 73 -7 c80 -8 129
7 138 42 12 47 -11 53 -112 26 -36 -9 -77 -13 -92 -10 -14 4 -53 34 -85 67
-36 36 -69 60 -82 60 -47 0 -12 79 71 158 36 34 294 142 340 142 13 0 39 11
58 23 19 13 73 37 120 52 118 39 136 49 143 83 7 34 97 136 138 157 16 9 56
15 92 15 75 0 82 6 98 80 9 45 9 62 -6 110 -23 74 -15 112 36 187 l40 58 -37
32 c-62 55 -327 153 -373 138 -14 -4 -28 5 -53 36 -102 127 -110 130 -191 79
-59 -37 -69 -37 -114 -3 -30 23 -46 28 -96 28 -54 0 -62 3 -80 28 -15 19 -21
41 -20 69 1 22 -4 53 -12 67 -13 26 -72 90 -84 92 -3 0 -29 2 -58 2 -33 1 -58
8 -69 18 -24 25 -37 105 -22 145 19 54 -22 129 -90 163 -61 30 -85 32 -120 11z"/>
<path d="M2990 4469 c-146 -54 -147 -54 -200 -40 -27 7 -63 10 -79 6 -56 -12
-103 -78 -87 -121 5 -14 15 -15 56 -10 49 7 49 7 69 -31 24 -47 42 -64 108
-97 61 -31 87 -63 78 -99 -12 -47 25 -43 88 9 34 29 47 30 47 6 0 -36 52 -123
88 -147 69 -47 108 -27 97 48 -8 52 18 122 41 113 22 -8 47 38 39 73 -8 37
-48 81 -73 81 -27 0 -39 17 -47 70 -9 54 -25 75 -86 105 -25 13 -51 31 -58 39
-16 20 -14 20 -81 -5z"/>
<path d="M2494 4336 c-40 -18 -74 -62 -74 -96 0 -103 -68 -196 -189 -259 -95
-49 -111 -64 -111 -100 0 -42 -17 -51 -99 -51 -99 0 -176 21 -202 54 -22 28
-99 73 -99 58 0 -5 7 -31 15 -58 8 -27 22 -85 30 -129 9 -44 18 -90 21 -102 4
-21 1 -23 -38 -23 -45 0 -147 -14 -185 -26 -17 -5 -34 5 -77 46 l-55 52 -47
-30 c-27 -18 -65 -34 -93 -37 -106 -14 -120 -17 -133 -32 -10 -13 -9 -18 7
-29 57 -41 58 -43 52 -105 l-5 -59 33 0 c18 0 71 -16 117 -36 45 -20 115 -44
153 -53 65 -16 70 -19 70 -45 1 -18 14 -39 43 -65 34 -31 42 -45 42 -73 0 -57
67 -141 145 -181 67 -34 67 -33 50 -233 -22 -260 -52 -436 -94 -547 -16 -41
-14 -57 8 -57 23 0 37 -18 33 -42 -2 -9 8 -24 22 -33 51 -34 122 -47 291 -55
192 -9 278 -30 327 -77 26 -25 37 -28 92 -28 86 0 110 18 132 96 20 72 56 111
144 158 86 46 128 43 325 -19 87 -27 165 -50 173 -50 23 0 67 27 139 87 39 32
85 66 102 75 29 16 71 71 71 94 0 6 -13 9 -30 6 -38 -5 -71 16 -110 70 -24 32
-30 52 -30 92 -1 28 -7 62 -15 76 -22 38 -18 48 25 75 22 14 40 31 40 37 0 7
-12 43 -27 81 -22 56 -25 72 -15 88 17 27 15 49 -10 86 -29 42 -49 41 -118 -2
-30 -18 -56 -32 -58 -31 -1 2 7 19 18 39 14 23 19 44 15 60 -5 20 0 29 25 47
18 13 39 39 47 59 8 20 33 55 54 79 22 23 42 55 45 71 5 21 15 33 34 40 35 12
50 40 91 167 17 55 42 123 55 153 13 29 24 65 24 80 0 23 -8 28 -63 47 -34 12
-116 44 -183 71 -66 28 -147 57 -180 64 -41 9 -83 29 -137 66 -100 68 -130 83
-166 83 -35 0 -43 11 -51 65 -5 36 -8 40 -41 45 -57 10 -105 45 -128 96 l-21
45 -50 -7 -51 -7 -16 42 c-14 36 -20 41 -47 41 -17 -1 -45 -7 -62 -14z"/>
<path d="M5000 4301 c-151 -42 -349 -138 -394 -192 -20 -23 -24 -37 -20 -57
11 -47 76 -132 189 -245 111 -112 183 -167 218 -167 10 0 45 26 78 57 l60 57
47 -13 c26 -8 70 -20 97 -28 77 -22 245 -30 259 -12 7 9 29 14 57 14 58 0 123
40 143 90 11 25 33 46 76 73 78 48 78 69 1 122 -67 46 -232 130 -256 130 -9 0
-30 -11 -47 -25 -16 -14 -34 -25 -39 -25 -18 0 -109 93 -115 117 -8 30 -42 48
-121 64 -50 10 -63 17 -65 33 -3 18 -11 21 -53 23 -27 1 -79 -6 -115 -16z"/>
<path d="M3292 4058 c-7 -7 -12 -31 -12 -54 0 -85 36 -128 72 -85 22 28 23 62
3 101 -19 37 -47 54 -63 38z"/>
<path d="M5961 3883 c-28 -22 -36 -24 -53 -14 -12 7 -32 10 -50 6 -37 -9 -98
-61 -98 -85 0 -27 -70 -85 -126 -104 -76 -27 -97 -39 -113 -67 -30 -53 18
-152 101 -206 36 -24 51 -28 105 -26 97 3 139 18 151 52 11 31 21 36 94 46 25
3 52 13 58 20 8 10 31 15 66 15 45 0 57 4 79 27 14 15 25 31 25 34 0 34 221
39 257 7 27 -24 55 -22 81 5 20 21 92 166 92 184 0 12 -147 71 -209 84 -82 17
-151 6 -227 -36 -81 -45 -105 -43 -122 10 -15 46 -39 75 -61 75 -9 0 -31 -12
-50 -27z"/>
<path d="M5070 3665 c-63 -52 -85 -60 -124 -46 -55 21 -78 13 -164 -54 -90
-71 -94 -80 -67 -155 19 -53 19 -99 1 -106 -8 -3 -29 2 -46 11 -41 21 -107 21
-185 0 -33 -9 -109 -25 -170 -36 -60 -11 -123 -23 -138 -26 -17 -3 -44 2 -67
12 -55 25 -70 16 -70 -40 0 -36 6 -52 26 -72 26 -26 26 -26 114 -7 18 4 31 -1
44 -15 24 -26 55 -27 98 -1 19 10 67 27 108 36 41 9 84 18 96 21 15 3 28 -4
45 -27 63 -83 103 -101 282 -127 104 -15 111 -15 217 6 261 52 329 94 331 208
2 80 10 96 63 121 l49 24 -6 61 c-8 81 -33 163 -58 188 -11 11 -33 19 -53 19
-19 0 -73 11 -120 25 -122 35 -141 34 -206 -20z"/>
<path d="M6278 3581 c-22 -5 -55 -24 -82 -49 -40 -37 -51 -42 -92 -42 -30 0
-54 -6 -65 -16 -10 -9 -39 -19 -63 -21 -37 -5 -51 -12 -71 -39 -32 -42 -85
-57 -181 -52 -59 3 -78 8 -113 32 -23 16 -43 27 -44 25 -2 -2 -11 -17 -21 -32
-10 -16 -33 -35 -51 -43 -24 -10 -33 -19 -28 -29 3 -9 -2 -24 -11 -34 -23 -26
-46 -104 -46 -158 0 -43 22 -97 57 -140 49 -58 247 -163 312 -165 15 -1 41 8
57 20 38 28 108 46 289 77 83 14 167 30 187 36 39 10 78 50 78 79 0 78 216
380 272 380 35 0 31 24 -12 62 -40 35 -117 68 -162 68 -10 0 -31 9 -46 20 -31
23 -108 33 -164 21z"/>
<path d="M7567 3548 c-28 -8 -37 -14 -32 -26 12 -31 169 -288 200 -327 41 -52
43 -61 56 -250 5 -88 14 -164 20 -170 15 -15 53 32 109 138 29 53 60 102 71
107 10 6 37 7 59 4 63 -10 105 37 61 68 -10 7 -30 36 -44 63 -14 28 -43 73
-66 100 -47 56 -49 72 -20 109 26 33 20 52 -20 61 -17 4 -36 15 -41 26 -8 14
-21 19 -49 19 -25 0 -41 5 -44 15 -8 20 -72 50 -135 64 -61 13 -73 13 -125 -1z"/>
<path d="M7401 3469 c-51 -33 -162 -77 -241 -95 -48 -12 -57 -11 -79 4 -52 37
-67 43 -102 37 -21 -3 -76 2 -124 10 -48 9 -97 13 -109 9 -11 -3 -44 -24 -73
-46 -29 -22 -56 -37 -61 -34 -13 8 -118 -155 -174 -271 -52 -109 -72 -130
-165 -177 -29 -15 -53 -28 -53 -30 0 -1 18 -21 40 -44 22 -22 40 -48 40 -57 0
-33 31 -75 70 -95 43 -22 64 -52 57 -80 -12 -46 72 -99 154 -100 77 0 137 -30
94 -46 -24 -10 -18 -27 25 -69 27 -26 40 -48 40 -66 0 -28 19 -39 70 -39 14 0
53 -10 85 -21 53 -19 74 -21 185 -16 140 7 197 20 285 65 97 50 133 57 217 43
87 -14 152 -42 167 -70 9 -16 21 -21 51 -21 44 0 60 18 60 66 0 66 66 264 88
264 5 0 16 -10 25 -22 14 -22 17 -22 43 -8 16 9 39 31 51 49 21 30 22 37 9 55
-19 30 -77 33 -120 7 -47 -29 -116 -28 -143 2 -29 32 -31 40 -48 214 -9 87
-20 176 -26 198 -22 80 -164 331 -220 388 -34 34 -62 33 -118 -4z"/>
<path d="M3805 3319 c-120 -14 -188 -30 -235 -54 -58 -29 -143 -120 -159 -168
-8 -24 -23 -43 -42 -52 -51 -27 -32 -49 41 -50 39 0 47 -4 65 -33 58 -95 60
-97 92 -100 17 -2 50 2 73 8 33 9 44 18 56 46 14 33 65 74 92 74 7 0 19 -15
27 -33 8 -19 21 -39 29 -46 23 -19 59 7 97 69 17 28 35 50 41 50 5 0 23 -9 39
-21 17 -12 37 -18 48 -14 21 6 101 89 101 104 0 5 -18 7 -40 4 -35 -5 -43 -2
-74 29 -33 33 -56 89 -56 136 0 13 -5 32 -10 43 -12 21 -58 23 -185 8z"/>
<path d="M4391 3131 c-18 -5 -47 -19 -64 -32 -22 -16 -43 -22 -74 -20 -38 1
-43 -1 -43 -20 0 -11 -13 -33 -30 -47 -16 -15 -30 -34 -30 -44 0 -9 -10 -22
-21 -29 -29 -15 -93 4 -114 34 l-16 22 -29 -32 c-27 -30 -50 -87 -50 -125 0
-32 -25 -19 -92 47 -74 74 -98 82 -98 32 0 -49 -27 -67 -127 -89 -48 -10 -91
-22 -96 -27 -5 -5 0 -28 12 -56 12 -26 21 -53 21 -59 0 -6 -19 -27 -42 -47
l-41 -36 26 -48 c32 -56 33 -64 10 -80 -16 -12 -15 -16 9 -52 25 -37 78 -73
110 -73 19 0 38 -21 38 -42 0 -10 6 -18 13 -18 6 0 59 36 117 80 117 90 104
88 222 29 136 -68 164 -103 193 -246 18 -86 29 -103 170 -257 104 -113 244
-240 295 -266 19 -10 62 -23 95 -30 93 -19 128 -37 178 -90 35 -37 59 -53 92
-61 41 -10 48 -17 78 -72 26 -51 41 -66 82 -87 59 -29 90 -79 129 -205 38
-123 40 -147 15 -179 -25 -31 -59 -117 -59 -146 0 -25 39 -43 58 -27 27 22 74
100 90 149 14 44 24 56 62 78 39 23 45 31 48 64 3 35 -2 43 -57 96 -34 32 -61
61 -61 65 0 15 36 73 82 132 39 49 56 63 76 63 40 0 124 -53 169 -105 38 -45
39 -46 57 -26 16 18 16 21 2 50 -24 45 -121 119 -290 220 -84 49 -164 101
-180 116 l-27 25 21 34 c28 46 18 51 -100 51 -91 0 -98 2 -154 35 -93 55 -144
129 -207 299 -37 97 -84 151 -167 190 -50 24 -53 24 -66 6 -24 -33 -43 -12
-49 57 -4 34 -9 93 -13 129 -5 52 -3 71 10 91 15 22 15 29 0 77 -27 93 -26 94
145 167 24 10 50 24 57 32 18 18 18 113 0 156 -12 29 -22 36 -82 55 -65 19
-83 29 -146 74 -30 21 -109 30 -157 18z"/>
<path d="M5245 3055 c-63 -21 -179 -43 -318 -60 -91 -12 -108 -60 -56 -163 47
-94 96 -124 134 -82 23 25 46 25 96 -1 51 -25 63 -21 63 22 1 29 6 36 39 51
20 10 37 24 38 31 0 6 1 27 2 46 2 30 10 41 60 79 121 92 95 127 -58 77z"/>
<path d="M5323 2956 c-39 -18 -57 -49 -49 -90 6 -33 -1 -50 -23 -57 -7 -3 -23
-23 -36 -44 -12 -22 -33 -46 -46 -53 -32 -17 -80 -7 -102 21 -17 22 -17 22
-32 3 -23 -31 -18 -51 25 -101 22 -25 43 -58 46 -73 11 -52 28 -86 66 -129 33
-38 36 -46 26 -67 -14 -31 12 -70 80 -119 69 -50 85 -57 157 -66 56 -6 65 -5
60 7 -3 8 -41 65 -84 126 -87 122 -151 238 -151 274 0 13 5 32 10 43 10 17 22
19 118 19 153 -1 409 -25 462 -45 25 -9 52 -19 60 -21 10 -3 21 9 35 38 16 34
25 43 45 43 35 0 39 -32 5 -45 -22 -8 -24 -13 -15 -29 5 -11 15 -23 20 -26 12
-8 13 -72 1 -79 -5 -3 -14 -20 -20 -37 -10 -29 -8 -33 37 -81 l46 -50 -34 -28
-35 -28 28 -26 c15 -14 27 -29 27 -34 0 -15 -24 -32 -46 -32 -14 0 -33 -13
-50 -35 -18 -24 -34 -35 -47 -33 -16 2 -23 -5 -29 -31 -6 -20 -17 -35 -29 -38
-11 -3 -19 -14 -19 -27 1 -48 77 -176 105 -176 7 0 36 23 63 52 42 43 56 52
85 52 55 0 128 -50 154 -106 l23 -47 74 35 c59 28 93 37 167 44 111 10 124 20
124 91 0 47 3 53 43 87 44 38 52 59 27 68 -22 9 -72 94 -85 145 -10 39 -9 52
4 77 18 35 21 119 6 142 -9 13 -14 11 -33 -12 -13 -16 -26 -28 -29 -28 -4 0
-36 20 -71 45 -44 30 -68 55 -76 77 -25 67 -42 94 -78 118 -24 16 -44 43 -60
80 -29 66 -85 127 -125 135 -32 8 -180 -22 -205 -41 -17 -11 -17 -16 0 -80 16
-58 16 -69 4 -81 -25 -25 -47 9 -47 71 0 51 -12 76 -36 76 -6 0 -14 -9 -17
-20 -12 -47 -129 -14 -309 86 -128 71 -166 82 -215 60z"/>
<path d="M5286 2614 c-5 -17 2 -44 19 -82 41 -89 167 -272 229 -330 31 -30 56
-62 56 -71 0 -33 58 -99 131 -151 40 -27 78 -50 84 -50 9 0 11 13 8 44 -8 72
56 167 101 150 13 -5 15 1 13 33 -2 36 0 38 28 41 54 5 56 8 34 46 -12 22 -19
48 -18 73 2 29 -3 45 -19 61 -12 12 -22 28 -22 36 0 28 20 66 35 66 16 0 31
43 20 60 -4 6 -20 8 -39 4 -23 -4 -50 2 -94 20 -44 19 -105 31 -226 46 -214
26 -214 26 -228 -7 -7 -16 -13 -30 -14 -32 -2 -2 -17 13 -34 33 -38 43 -55 45
-64 10z"/>
<path d="M6655 2325 c-15 -14 -25 -36 -25 -52 0 -39 55 -131 91 -151 48 -28
36 -92 -18 -92 -29 0 -39 -21 -47 -95 -8 -76 4 -116 49 -166 35 -39 39 -50 35
-101 -1 -21 5 -31 24 -39 21 -10 42 -8 111 9 110 28 148 28 230 -3 48 -18 88
-26 136 -26 91 0 139 24 174 89 46 84 137 115 221 75 36 -17 36 -17 56 7 31
38 7 104 -36 98 -28 -4 -23 25 11 71 14 18 40 68 57 110 27 64 38 79 71 98 59
32 68 42 54 59 -6 8 -21 14 -32 14 -11 0 -66 21 -121 48 -91 42 -108 47 -173
47 -66 0 -78 -4 -169 -50 l-97 -50 -181 1 c-181 2 -322 20 -352 45 -8 6 -14
27 -14 45 0 42 -20 45 -55 9z"/>
<path d="M453 2205 c-20 -8 -35 -23 -39 -39 -10 -40 -41 -60 -102 -66 -50 -4
-58 -8 -74 -36 -18 -31 -18 -31 14 -90 17 -32 37 -86 43 -119 l11 -60 62 0
c46 0 64 -4 74 -17 15 -20 59 -38 93 -38 12 0 42 9 66 20 54 24 141 27 163 4
9 -8 16 -26 16 -39 0 -12 9 -33 19 -46 22 -28 18 -44 -34 -122 -31 -46 -37
-67 -44 -134 -5 -47 -15 -90 -26 -106 -11 -17 -15 -36 -11 -52 7 -29 -21 -102
-47 -124 -23 -19 -21 -45 6 -89 37 -59 37 -66 5 -131 l-30 -61 21 -43 c27 -56
27 -57 -10 -103 -65 -81 -58 -114 34 -160 73 -37 101 -66 163 -171 54 -91 102
-140 128 -130 8 3 24 25 37 48 31 55 60 75 134 94 78 19 300 45 392 45 39 0
84 5 98 10 15 6 61 45 104 88 42 43 92 84 111 91 19 7 45 17 58 22 14 5 22 17
22 31 0 32 40 98 100 167 32 36 50 67 50 83 0 14 -16 60 -36 104 -23 49 -33
82 -28 90 75 107 215 317 228 341 20 40 73 71 203 118 111 40 208 101 248 155
35 47 35 150 -1 150 -7 0 -18 -9 -24 -20 -9 -17 -21 -20 -70 -20 -33 0 -77 7
-98 15 -21 9 -53 14 -71 13 -30 -3 -35 1 -44 27 -5 17 -15 33 -21 37 -6 4 -58
8 -116 8 -219 0 -364 32 -437 95 -23 19 -53 39 -69 45 -28 11 -154 21 -489 40
-117 6 -208 17 -260 30 -60 15 -111 20 -206 19 -108 0 -134 3 -172 20 -53 24
-98 26 -144 6z"/>
<path d="M3925 1932 c-11 -2 -32 -13 -47 -24 -24 -17 -28 -26 -27 -66 1 -68
22 -179 36 -193 28 -28 105 87 119 177 10 70 -26 117 -81 106z"/>
<path d="M6049 1898 c-43 -14 -54 -54 -34 -122 13 -45 15 -82 11 -179 -12
-244 -8 -277 38 -309 43 -29 66 -59 66 -85 0 -13 4 -23 9 -23 16 0 77 78 111
141 17 33 38 63 46 66 22 8 17 28 -28 116 -42 78 -43 84 -41 166 3 124 -31
189 -117 224 -24 10 -43 12 -61 5z"/>
<path d="M6394 1811 c-10 -11 -29 -21 -41 -21 -66 0 -129 -152 -92 -223 48
-94 149 -109 255 -38 26 17 60 31 76 31 36 0 84 24 98 49 17 32 11 94 -13 135
-33 60 -75 79 -178 84 -79 4 -89 2 -105 -17z"/>
<path d="M342 1759 c-43 -13 -48 -29 -28 -100 39 -141 -3 -411 -90 -582 -27
-52 -34 -78 -32 -110 3 -39 5 -42 34 -43 37 -2 62 -14 92 -47 22 -23 23 -29
13 -83 -17 -104 -23 -208 -12 -236 8 -22 20 -28 68 -39 88 -18 110 -16 143 16
24 23 30 37 30 70 0 28 10 62 30 98 35 65 37 87 13 128 -17 29 -17 30 15 88
37 68 37 71 -27 176 -26 42 -36 67 -28 69 7 2 30 10 52 18 l40 14 1 56 c0 33
7 64 15 74 8 10 16 50 20 93 4 66 11 85 42 137 46 73 49 119 11 163 -21 26
-33 31 -68 31 -29 0 -51 -7 -67 -21 -21 -18 -34 -20 -97 -17 -63 3 -75 7 -97
31 -28 30 -26 29 -73 16z"/>
<path d="M7503 1755 c-43 -18 -67 -56 -58 -94 4 -20 0 -41 -14 -66 -30 -56 -9
-136 44 -171 34 -22 65 -12 125 41 60 53 95 64 243 73 l112 7 -58 27 c-73 34
-102 57 -141 111 -38 53 -44 56 -82 55 -17 -1 -42 6 -55 15 -28 20 -73 21
-116 2z"/>
<path d="M9065 1759 c-22 -4 -76 -8 -120 -8 -86 -1 -200 -28 -317 -75 -101
-41 -157 -75 -205 -125 l-43 -45 -88 13 c-110 16 -285 26 -306 18 -38 -15 48
-87 104 -87 27 0 26 -17 -2 -26 -86 -26 -129 -47 -124 -60 7 -19 -12 -22 -184
-29 -280 -12 -392 -57 -394 -158 l-1 -42 78 2 c42 2 77 -1 77 -5 0 -4 -7 -16
-15 -26 -22 -30 -18 -55 15 -93 36 -40 36 -43 10 -76 -26 -33 -25 -61 3 -80
22 -15 22 -15 2 -23 -50 -19 -47 -61 5 -81 34 -14 40 -21 40 -45 0 -16 -6 -31
-15 -34 -24 -9 -18 -24 30 -75 24 -26 47 -58 50 -71 6 -23 9 -24 53 -17 76 13
81 11 131 -36 27 -25 58 -45 70 -45 14 0 28 -11 39 -32 47 -87 96 -113 175
-93 57 15 104 56 117 105 18 63 22 66 85 53 71 -15 249 -99 295 -140 67 -58
98 -64 183 -38 73 22 147 62 193 105 24 22 55 42 69 46 39 10 113 -1 134 -20
25 -23 43 -20 86 14 46 37 69 44 95 30 28 -15 25 -37 -10 -90 -53 -80 -33
-164 26 -109 37 34 54 72 54 119 0 23 5 50 10 61 13 23 54 25 90 4 35 -20 72
-18 172 7 l86 22 94 -22 c51 -12 103 -22 116 -22 12 0 71 16 130 35 138 44
186 54 304 65 62 5 108 15 127 26 29 17 33 17 60 1 26 -15 32 -16 66 -1 30 12
71 15 201 13 111 -2 168 1 175 8 18 18 1 64 -38 99 -34 32 -35 34 -23 64 18
43 7 165 -24 269 -14 46 -23 87 -20 92 3 5 14 9 25 9 30 0 59 36 59 74 0 42
-8 48 -79 57 -61 9 -71 18 -98 87 -13 35 -14 50 -5 74 14 39 5 60 -57 135 -69
83 -105 97 -216 83 -97 -12 -129 -22 -210 -66 -110 -60 -202 -73 -337 -49 -23
5 -72 0 -125 -10 -108 -21 -179 -15 -303 25 -50 17 -118 37 -153 45 -55 12
-67 20 -109 67 -38 42 -50 50 -60 40 -17 -17 -69 -15 -96 4 -13 9 -34 33 -48
55 -26 42 -35 44 -109 28z"/>
<path d="M6905 1614 c-27 -8 -81 -19 -119 -24 -53 -6 -73 -13 -86 -30 -12 -16
-32 -23 -84 -30 -62 -8 -133 -41 -152 -72 -3 -4 -25 -8 -49 -8 -59 0 -75 -8
-75 -36 0 -13 -13 -38 -29 -57 -16 -18 -33 -48 -38 -67 -6 -22 -16 -36 -29
-39 -10 -2 -22 -8 -26 -15 -15 -23 -7 -83 17 -132 31 -62 64 -94 107 -104 l33
-8 -32 -7 c-61 -14 -66 -47 -16 -105 25 -30 25 -30 133 -30 60 0 133 -5 162
-11 69 -14 223 -89 277 -135 23 -20 44 -34 47 -31 9 9 -17 80 -41 113 -23 30
-68 63 -190 140 l-60 37 33 9 c33 9 33 9 17 34 -9 14 -15 35 -13 47 3 19 9 22
46 20 36 -2 43 1 40 15 -2 9 -12 18 -23 20 -31 6 -52 30 -58 68 -3 19 -15 47
-26 63 -27 38 -26 61 5 123 l26 52 22 -45 c18 -38 25 -44 57 -47 62 -5 86 11
93 61 4 25 16 53 27 62 23 22 180 54 260 55 30 0 79 -7 108 -16 29 -8 69 -14
89 -12 35 3 37 5 35 38 -2 44 -24 60 -83 60 -58 0 -146 16 -229 41 -73 22
-107 23 -176 3z"/>
<path d="M3851 1482 c-78 -39 -83 -52 -60 -137 23 -87 24 -152 2 -229 l-17
-59 39 -34 c47 -41 59 -41 92 -3 14 17 33 29 42 28 25 -4 57 70 71 165 15 97
4 165 -38 242 -33 61 -55 66 -131 27z"/>
<path d="M6485 798 c-11 -6 -44 -29 -73 -51 l-52 -40 61 -64 c50 -52 60 -68
54 -86 -16 -51 -16 -73 -1 -86 11 -9 20 -10 36 -1 31 17 46 7 75 -50 14 -27
29 -50 34 -50 5 0 14 13 21 30 14 33 34 39 48 13 6 -10 16 -14 26 -10 25 10
20 71 -15 149 -17 38 -28 72 -25 75 3 3 28 -4 56 -16 59 -25 103 -25 108 2 3
13 -3 17 -26 17 -18 0 -37 10 -53 26 -43 46 -176 130 -234 147 -11 4 -29 1
-40 -5z"/>
<path d="M4722 745 c-14 -10 -32 -15 -46 -11 -13 3 -31 -1 -42 -9 -18 -15 -17
-17 30 -61 53 -48 216 -134 256 -134 32 0 84 -32 105 -64 9 -13 29 -29 45 -36
25 -10 34 -10 55 4 34 22 41 58 20 111 -18 49 -12 87 26 150 24 38 24 65 2 65
-10 0 -75 -7 -144 -14 -74 -8 -143 -10 -170 -6 -24 5 -60 11 -79 15 -25 4 -42
1 -58 -10z"/>
<path d="M6890 92 c0 -12 45 -27 109 -37 24 -4 64 -18 89 -31 82 -43 216 -23
159 24 -30 25 -357 65 -357 44z"/>
</g>
</svg>
